{
  "asset": {
    "version": "2.0",
    "generator": "Project 3 mesh fixtures"
  },
  "buffers": [
    {
      "byteLength": 11520,
      "uri": "torus.bin"
    }
  ],
  "bufferViews": [
    {
      "buffer": 0,
      "byteOffset": 0,
      "byteLength": 5760,
      "byteStride": 12
    },
    {
      "buffer": 0,
      "byteOffset": 5760,
      "byteLength": 5760
    }
  ],
  "accessors": [
    {
      "bufferView": 0,
      "componentType": 5126,
      "count": 480,
      "type": "VEC3",
      "min": [
        -1.08,
        -1.08,
        -0.28
      ],
      "max": [
        1.08,
        1.08,
        0.28
      ]
    },
    {
      "bufferView": 1,
      "componentType": 5123,
      "count": 2880,
      "type": "SCALAR"
    }
  ],
  "meshes": [
    {
      "primitives": [
        {
          "attributes": {
            "POSITION": 0
          },
          "mode": 4,
          "indices": 1
        }
      ]
    }
  ],
  "nodes": [
    {
      "mesh": 0
    }
  ],
  "scenes": [
    {
      "nodes": [
        0
      ]
    }
  ],
  "scene": 0
}